<?xml version="1.0" standalone="no"?>
<!DOCTYPE svg PUBLIC "-//W3C//DTD SVG 20010904//EN"
 "http://www.w3.org/TR/2001/REC-SVG-20010904/DTD/svg10.dtd">
<svg version="1.0" xmlns="http://www.w3.org/2000/svg"
 width="500.000000pt" height="500.000000pt" viewBox="0 0 500.000000 500.000000"
 preserveAspectRatio="xMidYMid meet">
<metadata>
Created by potrace 1.14, written by Peter Selinger 2001-2017
</metadata>
<g transform="translate(0.000000,500.000000) scale(0.100000,-0.100000)"
fill="#000000" stroke="none">
<path d="M0 2500 l0 -2500 2500 0 2500 0 0 2500 0 2500 -2500 0 -2500 0 0
-2500z m3415 1425 l0 -260 -55 0 -55 0 -16 115 c-9 63 -20 141 -23 172 -5 41
-12 59 -24 62 -35 11 -304 26 -474 26 l-178 0 0 -354 0 -354 23 -6 c12 -3 36
-6 54 -6 50 0 259 -38 336 -61 364 -109 592 -389 653 -800 22 -148 14 -438
-15 -574 -53 -250 -163 -445 -324 -575 -78 -63 -235 -141 -351 -175 -174 -50
-264 -55 -927 -55 l-610 0 3 47 3 48 140 22 c77 12 141 22 143 22 1 1 2 446 2
990 l0 989 -145 22 -145 23 0 43 0 44 415 0 415 0 0 361 0 361 -212 -6 c-288
-10 -430 -23 -444 -41 -6 -8 -19 -81 -28 -162 -10 -81 -20 -156 -22 -165 -4
-14 -16 -18 -60 -18 l-54 0 0 265 0 265 988 -2 987 -3 0 -260z m425 -2905 c0
-20 -7 -20 -1269 -20 -836 0 -1272 3 -1276 10 -3 6 -3 15 0 20 4 7 440 10
1276 10 1262 0 1269 0 1269 -20z m-1680 -130 c0 -5 -11 -10 -25 -10 -24 0 -25
-2 -25 -75 0 -60 -3 -75 -15 -75 -12 0 -15 15 -15 75 0 73 -1 75 -25 75 -14 0
-25 5 -25 10 0 6 28 10 65 10 37 0 65 -4 65 -10z m300 -8 c13 -10 23 -33 27
-59 5 -35 2 -45 -20 -67 -20 -20 -36 -26 -72 -26 l-45 0 0 85 0 85 44 0 c27 0
52 -7 66 -18z m323 1 c2 -10 16 -48 30 -85 19 -49 22 -68 13 -68 -7 0 -18 11
-24 25 -8 17 -20 25 -37 25 -17 0 -29 -8 -37 -25 -6 -14 -17 -25 -24 -25 -10
0 -5 22 16 81 17 44 30 82 30 85 0 13 28 1 33 -13z m-529 -45 c20 -29 20 -72
0 -92 -20 -21 -63 -20 -86 1 -39 35 -10 113 42 113 18 0 34 -8 44 -22z m346
12 c27 -14 35 -65 16 -95 -21 -32 -80 -35 -96 -6 -35 67 18 134 80 101z m354
-12 c33 -46 7 -108 -45 -108 -26 0 -29 -3 -29 -30 0 -20 -5 -30 -15 -30 -12 0
-15 17 -15 93 l0 94 44 1 c36 2 48 -2 60 -20z m130 6 c19 -18 21 -85 4 -102
-7 -7 -27 -12 -45 -12 -30 0 -33 -3 -33 -30 0 -16 -4 -30 -10 -30 -6 0 -10 38
-10 93 l0 94 39 1 c25 1 46 -4 55 -14z"/>
<path d="M2040 2615 c0 -532 1 -565 18 -564 9 0 58 6 107 12 l90 12 3 553 2
552 -110 0 -110 0 0 -565z"/>
<path d="M2592 2618 l3 -543 170 -22 c94 -12 171 -22 173 -22 1 -1 2 -21 2
-46 l0 -45 -450 0 -450 0 0 -349 0 -349 134 -7 c74 -4 224 -5 333 -2 222 6
302 21 422 82 272 136 403 457 388 945 -7 216 -30 324 -96 460 -112 230 -315
377 -599 435 l-32 7 2 -544z"/>
<path d="M2380 815 c0 -65 2 -75 18 -75 38 0 62 29 62 75 0 46 -24 75 -62 75
-16 0 -18 -10 -18 -75z"/>
<path d="M2752 830 c-10 -26 -3 -34 22 -28 13 3 13 7 1 28 l-14 25 -9 -25z"/>
<path d="M2191 836 c-7 -8 -11 -32 -9 -53 3 -33 6 -38 28 -38 22 0 25 5 28 38
3 36 -10 67 -28 67 -4 0 -13 -6 -19 -14z"/>
<path d="M2553 842 c-39 -25 -15 -120 24 -96 21 13 29 69 12 90 -13 16 -19 17
-36 6z"/>
<path d="M2892 838 c-18 -18 -15 -87 3 -94 23 -9 45 15 45 50 0 29 -15 56 -30
56 -3 0 -11 -5 -18 -12z"/>
<path d="M3026 834 c-20 -19 -21 -54 -2 -79 29 -40 71 20 47 71 -12 28 -24 30
-45 8z"/>
</g>
</svg>
